# xmcd
# 
# Track frame offsets:
#     150
#     16295
#     31653
#     45520
#     64568
#     78924
#     88688
#     102503
#     118839
#     133530
#     142353
#     154651
#     167548
#     181071
# 
# Disc length: 2487
# 
# Revision: 9
# Processed by: cddbd v1.5.2PL0 Copyright (c) Steve Scherf et al.
# Submitted via: fre:ac v1.0.31
# 
DISCID=ad09b50e
DTITLE=Thomas Dutronc - Comme un manouche sans guitare
DYEAR=2007
DGENRE=Jazz
TTITLE0=Jeune je ne savais rien
TTITLE1=Solitaires
TTITLE2=J'aime plus Paris
TTITLE3=Veish a no drom
TTITLE4=September song
TTITLE5=J'suis pas d'ici
TTITLE6=NASDAQ
TTITLE7=Je les veux toutes
TTITLE8=Les frites bordel
TTITLE9=Le Houdon jazz bar
TTITLE10=Comme un manouche sans guitare
TTITLE11=China boy
TTITLE12=Viens dans mon île
TTITLE13=Canzone per Maria
EXTD=YEAR: 2007
EXTT0=
EXTT1=
EXTT2=
EXTT3=
EXTT4=
EXTT5=
EXTT6=
EXTT7=
EXTT8=
EXTT9=
EXTT10=
EXTT11=
EXTT12=
EXTT13=
PLAYORDER=
